<mxfile host="Electron" agent="Mozilla/5.0 (X11; Linux x86_64) AppleWebKit/537.36 (KHTML, like Gecko) draw.io/26.0.9 Chrome/128.0.6613.186 Electron/32.2.5 Safari/537.36" version="26.0.9">
  <diagram name="Page-1" id="4gMz28VXyQhYOVb2kIbp">
    <mxGraphModel dx="4440" dy="1936" grid="1" gridSize="10" guides="1" tooltips="1" connect="1" arrows="1" fold="1" page="1" pageScale="1" pageWidth="1100" pageHeight="850" math="0" shadow="0">
      <root>
        <mxCell id="0" />
        <mxCell id="1" parent="0" />
        <mxCell id="69B2gRSznvLA6FT3gJxz-20" value="&lt;h1&gt;&lt;br&gt;&lt;/h1&gt;" style="shape=document;whiteSpace=wrap;html=1;boundedLbl=1;size=0;labelBackgroundColor=none;fillColor=#d5e8d4;strokeColor=#82b366;sketch=1;jiggle=2;curveFitting=1;align=center;verticalAlign=middle;fontFamily=Helvetica;fontSize=12;" parent="1" vertex="1">
          <mxGeometry x="909" y="613" width="140" height="80" as="geometry" />
        </mxCell>
        <mxCell id="69B2gRSznvLA6FT3gJxz-4" value="" style="shape=step;perimeter=stepPerimeter;whiteSpace=wrap;html=1;fixedSize=1;sketch=1;jiggle=2;curveFitting=1;strokeColor=#909090;align=center;verticalAlign=middle;fontFamily=Helvetica;fontSize=12;fontColor=#1A1A1A;labelBackgroundColor=none;fillColor=#F5AB50;" parent="1" vertex="1">
          <mxGeometry x="262" y="452" width="120" height="80" as="geometry" />
        </mxCell>
        <mxCell id="69B2gRSznvLA6FT3gJxz-5" value="" style="shape=step;perimeter=stepPerimeter;whiteSpace=wrap;html=1;fixedSize=1;sketch=1;jiggle=2;curveFitting=1;strokeColor=#909090;align=center;verticalAlign=middle;fontFamily=Helvetica;fontSize=12;fontColor=#1A1A1A;labelBackgroundColor=none;fillColor=#F5AB50;" parent="1" vertex="1">
          <mxGeometry x="367.5" y="452" width="120" height="80" as="geometry" />
        </mxCell>
        <mxCell id="69B2gRSznvLA6FT3gJxz-6" value="" style="shape=step;perimeter=stepPerimeter;whiteSpace=wrap;html=1;fixedSize=1;sketch=1;jiggle=2;curveFitting=1;strokeColor=#909090;align=center;verticalAlign=middle;fontFamily=Helvetica;fontSize=12;fontColor=#1A1A1A;labelBackgroundColor=none;fillColor=#F5AB50;" parent="1" vertex="1">
          <mxGeometry x="603.5" y="452" width="120" height="80" as="geometry" />
        </mxCell>
        <mxCell id="69B2gRSznvLA6FT3gJxz-7" value="" style="shape=step;perimeter=stepPerimeter;whiteSpace=wrap;html=1;fixedSize=1;sketch=1;jiggle=2;curveFitting=1;strokeColor=#909090;align=center;verticalAlign=middle;fontFamily=Helvetica;fontSize=12;fontColor=#1A1A1A;labelBackgroundColor=none;fillColor=#F5AB50;" parent="1" vertex="1">
          <mxGeometry x="473" y="452" width="120" height="80" as="geometry" />
        </mxCell>
        <mxCell id="69B2gRSznvLA6FT3gJxz-8" value="" style="shape=step;perimeter=stepPerimeter;whiteSpace=wrap;html=1;fixedSize=1;sketch=1;jiggle=2;curveFitting=1;strokeColor=#909090;align=center;verticalAlign=middle;fontFamily=Helvetica;fontSize=12;fontColor=#1A1A1A;labelBackgroundColor=none;fillColor=#F5AB50;" parent="1" vertex="1">
          <mxGeometry x="708" y="452" width="120" height="80" as="geometry" />
        </mxCell>
        <mxCell id="69B2gRSznvLA6FT3gJxz-1" value="" style="rounded=1;whiteSpace=wrap;html=1;sketch=1;jiggle=2;curveFitting=1;strokeColor=#82b366;align=center;verticalAlign=middle;fontFamily=Helvetica;fontSize=12;labelBackgroundColor=none;fillColor=#d5e8d4;" parent="1" vertex="1">
          <mxGeometry x="15.75" y="431" width="176.5" height="108" as="geometry" />
        </mxCell>
        <mxCell id="69B2gRSznvLA6FT3gJxz-2" value="" style="shape=cylinder3;whiteSpace=wrap;html=1;boundedLbl=1;backgroundOutline=1;size=15;strokeColor=#6c8ebf;align=center;verticalAlign=middle;fontFamily=Helvetica;fontSize=12;labelBackgroundColor=none;fillColor=#dae8fc;sketch=1;curveFitting=1;jiggle=2;" parent="1" vertex="1">
          <mxGeometry x="503" y="650" width="160" height="130" as="geometry" />
        </mxCell>
        <mxCell id="PB7MgOYjxUeBE9ouH02R-7" value="&lt;h1&gt;&lt;br&gt;&lt;/h1&gt;" style="shape=document;whiteSpace=wrap;html=1;boundedLbl=1;size=0.10869565217391304;labelBackgroundColor=none;fillColor=#d5e8d4;strokeColor=#82b366;sketch=1;jiggle=2;curveFitting=1;align=center;verticalAlign=middle;fontFamily=Helvetica;fontSize=12;" parent="1" vertex="1">
          <mxGeometry x="900.5" y="434.5" width="183" height="115" as="geometry" />
        </mxCell>
        <mxCell id="I46w1pYErF1tp79w03PN-21" value="" style="rounded=1;whiteSpace=wrap;html=1;strokeWidth=3;dashed=1;dashPattern=1 2;glass=1;labelBackgroundColor=none;fillColor=none;strokeColor=#909090;fontColor=#1A1A1A;" parent="1" vertex="1">
          <mxGeometry x="251" y="392" width="346" height="180" as="geometry" />
        </mxCell>
        <mxCell id="I46w1pYErF1tp79w03PN-8" value="&lt;h1&gt;&lt;br&gt;&lt;/h1&gt;" style="shape=document;whiteSpace=wrap;html=1;boundedLbl=1;size=0.10869565217391304;labelBackgroundColor=none;fillColor=#d5e8d4;strokeColor=#82b366;sketch=1;jiggle=2;curveFitting=1;align=center;verticalAlign=middle;fontFamily=Helvetica;fontSize=12;" parent="1" vertex="1">
          <mxGeometry x="890.5" y="424.5" width="183" height="115" as="geometry" />
        </mxCell>
        <mxCell id="I46w1pYErF1tp79w03PN-9" value="&lt;h1&gt;&lt;br&gt;&lt;/h1&gt;" style="ellipse;shape=cloud;whiteSpace=wrap;html=1;align=center;labelBackgroundColor=none;fillColor=#dae8fc;strokeColor=#6c8ebf;sketch=1;curveFitting=1;jiggle=2;fillStyle=hachure;" parent="1" vertex="1">
          <mxGeometry x="184" y="120" width="720" height="199" as="geometry" />
        </mxCell>
        <mxCell id="I46w1pYErF1tp79w03PN-22" value="" style="shape=flexArrow;endArrow=classic;startArrow=classic;html=1;rounded=0;labelBackgroundColor=none;fontColor=default;fillStyle=solid;strokeColor=#6c8ebf;entryX=0.15;entryY=0.798;entryDx=0;entryDy=0;entryPerimeter=0;strokeWidth=2;fillColor=#dae8fc;" parent="1" target="I46w1pYErF1tp79w03PN-9" edge="1">
          <mxGeometry width="100" height="100" relative="1" as="geometry">
            <mxPoint x="291" y="385" as="sourcePoint" />
            <mxPoint x="296.5" y="313" as="targetPoint" />
          </mxGeometry>
        </mxCell>
        <mxCell id="I46w1pYErF1tp79w03PN-23" value="" style="shape=flexArrow;endArrow=classic;startArrow=classic;html=1;rounded=0;labelBackgroundColor=none;fontColor=default;fillStyle=solid;strokeColor=#6c8ebf;entryX=0.847;entryY=0.804;entryDx=0;entryDy=0;entryPerimeter=0;strokeWidth=2;fillColor=#dae8fc;" parent="1" target="I46w1pYErF1tp79w03PN-9" edge="1">
          <mxGeometry width="100" height="100" relative="1" as="geometry">
            <mxPoint x="794.5" y="389" as="sourcePoint" />
            <mxPoint x="794.5" y="317" as="targetPoint" />
          </mxGeometry>
        </mxCell>
        <mxCell id="I46w1pYErF1tp79w03PN-24" value="" style="shape=flexArrow;endArrow=classic;startArrow=classic;html=1;rounded=0;labelBackgroundColor=none;fontColor=default;fillStyle=solid;strokeColor=#6c8ebf;strokeWidth=2;fillColor=#dae8fc;" parent="1" edge="1">
          <mxGeometry width="100" height="100" relative="1" as="geometry">
            <mxPoint x="551.5" y="388" as="sourcePoint" />
            <mxPoint x="551.5" y="316" as="targetPoint" />
          </mxGeometry>
        </mxCell>
        <mxCell id="I46w1pYErF1tp79w03PN-28" value="" style="curved=1;endArrow=classic;html=1;rounded=0;hachureGap=4;fontFamily=Architects Daughter;fontSource=https%3A%2F%2Ffonts.googleapis.com%2Fcss%3Ffamily%3DArchitects%2BDaughter;entryX=0.572;entryY=-0.014;entryDx=0;entryDy=0;entryPerimeter=0;dashed=1;dashPattern=12 12;labelBackgroundColor=none;fontColor=default;strokeColor=#182E3E;" parent="1" edge="1">
          <mxGeometry width="50" height="50" relative="1" as="geometry">
            <mxPoint x="759.5" y="452" as="sourcePoint" />
            <mxPoint x="548.1399999999999" y="450.8799999999999" as="targetPoint" />
            <Array as="points">
              <mxPoint x="726.5" y="415" />
              <mxPoint x="606.5" y="405" />
            </Array>
          </mxGeometry>
        </mxCell>
        <mxCell id="I46w1pYErF1tp79w03PN-29" value="&lt;b&gt;&lt;font style=&quot;font-size: 16px;&quot;&gt;ITERATE&lt;/font&gt;&lt;/b&gt;" style="text;html=1;align=center;verticalAlign=middle;whiteSpace=wrap;rounded=0;fontFamily=Architects Daughter;fontSource=https%3A%2F%2Ffonts.googleapis.com%2Fcss%3Ffamily%3DArchitects%2BDaughter;labelBackgroundColor=none;fontColor=#1A1A1A;" parent="1" vertex="1">
          <mxGeometry x="627.5" y="411" width="60" height="30" as="geometry" />
        </mxCell>
        <mxCell id="I46w1pYErF1tp79w03PN-30" value="&lt;div style=&quot;font-size: 28px;&quot;&gt;&lt;font style=&quot;font-size: 28px;&quot;&gt;&lt;b style=&quot;&quot;&gt;EXTERNAL SERVICES&lt;/b&gt;&lt;/font&gt;&lt;/div&gt;&lt;div style=&quot;font-size: 28px;&quot;&gt;&lt;font style=&quot;font-size: 28px;&quot;&gt;&lt;b style=&quot;&quot;&gt;(Cloud, Web, LLM&#39;s, API&#39;s, Test Points)&lt;/b&gt;&lt;/font&gt;&lt;/div&gt;" style="text;html=1;align=center;verticalAlign=middle;whiteSpace=wrap;rounded=0;fontFamily=Architects Daughter;fontSource=https%3A%2F%2Ffonts.googleapis.com%2Fcss%3Ffamily%3DArchitects%2BDaughter;labelBackgroundColor=none;fontColor=#1A1A1A;" parent="1" vertex="1">
          <mxGeometry x="294" y="204.5" width="516.5" height="30" as="geometry" />
        </mxCell>
        <mxCell id="I46w1pYErF1tp79w03PN-31" value="&lt;div style=&quot;&quot;&gt;&lt;div style=&quot;&quot;&gt;&lt;b style=&quot;&quot;&gt;&lt;font style=&quot;font-size: 38px;&quot;&gt;COBOLagency CA-Docu-App PROCESS&lt;/font&gt;&lt;/b&gt;&lt;/div&gt;&lt;/div&gt;" style="text;html=1;align=center;verticalAlign=middle;whiteSpace=wrap;rounded=0;fontFamily=Architects Daughter;fontSource=https%3A%2F%2Ffonts.googleapis.com%2Fcss%3Ffamily%3DArchitects%2BDaughter;labelBackgroundColor=none;fontColor=#1A1A1A;" parent="1" vertex="1">
          <mxGeometry x="114" y="30" width="860" height="30" as="geometry" />
        </mxCell>
        <mxCell id="I46w1pYErF1tp79w03PN-32" value="&lt;div style=&quot;&quot;&gt;&lt;span style=&quot;font-size: 22px;&quot;&gt;&lt;b&gt;EXPERIENCE&lt;br&gt;CAPTURE&lt;/b&gt;&lt;/span&gt;&lt;br&gt;&lt;/div&gt;" style="text;html=1;align=center;verticalAlign=middle;whiteSpace=wrap;rounded=0;fontFamily=Architects Daughter;fontSource=https%3A%2F%2Ffonts.googleapis.com%2Fcss%3Ffamily%3DArchitects%2BDaughter;labelBackgroundColor=none;fontColor=#1A1A1A;" parent="1" vertex="1">
          <mxGeometry x="485" y="693.5" width="200" height="60" as="geometry" />
        </mxCell>
        <mxCell id="I46w1pYErF1tp79w03PN-33" value="&lt;div style=&quot;&quot;&gt;&lt;span style=&quot;font-size: 22px;&quot;&gt;&lt;b&gt;REQUIREMENTS&lt;/b&gt;&lt;/span&gt;&lt;br&gt;&lt;/div&gt;" style="text;html=1;align=center;verticalAlign=middle;whiteSpace=wrap;rounded=0;fontFamily=Architects Daughter;fontSource=https%3A%2F%2Ffonts.googleapis.com%2Fcss%3Ffamily%3DArchitects%2BDaughter;labelBackgroundColor=none;fontColor=#1A1A1A;" parent="1" vertex="1">
          <mxGeometry x="4" y="459" width="200" height="60" as="geometry" />
        </mxCell>
        <mxCell id="I46w1pYErF1tp79w03PN-35" value="&lt;div style=&quot;&quot;&gt;&lt;b style=&quot;&quot;&gt;&lt;font style=&quot;font-size: 32px;&quot;&gt;A.&lt;/font&gt;&lt;/b&gt;&lt;br&gt;&lt;/div&gt;" style="text;html=1;align=center;verticalAlign=middle;whiteSpace=wrap;rounded=0;fontFamily=Architects Daughter;fontSource=https%3A%2F%2Ffonts.googleapis.com%2Fcss%3Ffamily%3DArchitects%2BDaughter;labelBackgroundColor=none;fontColor=#1A1A1A;" parent="1" vertex="1">
          <mxGeometry x="304.5" y="453" width="30" height="60" as="geometry" />
        </mxCell>
        <mxCell id="I46w1pYErF1tp79w03PN-37" value="&lt;div style=&quot;&quot;&gt;&lt;b style=&quot;&quot;&gt;&lt;font style=&quot;font-size: 32px;&quot;&gt;S.&lt;/font&gt;&lt;/b&gt;&lt;br&gt;&lt;/div&gt;" style="text;html=1;align=center;verticalAlign=middle;whiteSpace=wrap;rounded=0;fontFamily=Architects Daughter;fontSource=https%3A%2F%2Ffonts.googleapis.com%2Fcss%3Ffamily%3DArchitects%2BDaughter;labelBackgroundColor=none;fontColor=#1A1A1A;" parent="1" vertex="1">
          <mxGeometry x="410.5" y="453" width="30" height="60" as="geometry" />
        </mxCell>
        <mxCell id="I46w1pYErF1tp79w03PN-38" value="&lt;div style=&quot;&quot;&gt;&lt;b style=&quot;&quot;&gt;&lt;font style=&quot;font-size: 32px;&quot;&gt;P.&lt;/font&gt;&lt;/b&gt;&lt;br&gt;&lt;/div&gt;" style="text;html=1;align=center;verticalAlign=middle;whiteSpace=wrap;rounded=0;fontFamily=Architects Daughter;fontSource=https%3A%2F%2Ffonts.googleapis.com%2Fcss%3Ffamily%3DArchitects%2BDaughter;labelBackgroundColor=none;fontColor=#1A1A1A;" parent="1" vertex="1">
          <mxGeometry x="515" y="453" width="30.5" height="61" as="geometry" />
        </mxCell>
        <mxCell id="I46w1pYErF1tp79w03PN-39" value="&lt;div style=&quot;&quot;&gt;&lt;b style=&quot;&quot;&gt;&lt;font style=&quot;font-size: 32px;&quot;&gt;E.&lt;/font&gt;&lt;/b&gt;&lt;br&gt;&lt;/div&gt;" style="text;html=1;align=center;verticalAlign=middle;whiteSpace=wrap;rounded=0;fontFamily=Architects Daughter;fontSource=https%3A%2F%2Ffonts.googleapis.com%2Fcss%3Ffamily%3DArchitects%2BDaughter;labelBackgroundColor=none;fontColor=#1A1A1A;" parent="1" vertex="1">
          <mxGeometry x="651.5" y="453" width="30" height="60" as="geometry" />
        </mxCell>
        <mxCell id="I46w1pYErF1tp79w03PN-40" value="&lt;div style=&quot;&quot;&gt;&lt;b style=&quot;&quot;&gt;&lt;font style=&quot;font-size: 32px;&quot;&gt;R.&lt;/font&gt;&lt;/b&gt;&lt;br&gt;&lt;/div&gt;" style="text;html=1;align=center;verticalAlign=middle;whiteSpace=wrap;rounded=0;fontFamily=Architects Daughter;fontSource=https%3A%2F%2Ffonts.googleapis.com%2Fcss%3Ffamily%3DArchitects%2BDaughter;labelBackgroundColor=none;fontColor=#1A1A1A;" parent="1" vertex="1">
          <mxGeometry x="757.5" y="453" width="30" height="60" as="geometry" />
        </mxCell>
        <mxCell id="I46w1pYErF1tp79w03PN-41" value="&lt;b&gt;&lt;font style=&quot;font-size: 16px;&quot;&gt;ANALIZE&lt;/font&gt;&lt;/b&gt;" style="text;html=1;align=center;verticalAlign=middle;whiteSpace=wrap;rounded=0;fontFamily=Architects Daughter;fontSource=https%3A%2F%2Ffonts.googleapis.com%2Fcss%3Ffamily%3DArchitects%2BDaughter;fontSize=14;labelBackgroundColor=none;fontColor=#1A1A1A;" parent="1" vertex="1">
          <mxGeometry x="289.5" y="495" width="60" height="30" as="geometry" />
        </mxCell>
        <mxCell id="I46w1pYErF1tp79w03PN-42" value="&lt;b&gt;&lt;font style=&quot;font-size: 16px;&quot;&gt;STRUCTURE&lt;/font&gt;&lt;/b&gt;" style="text;html=1;align=center;verticalAlign=middle;whiteSpace=wrap;rounded=0;fontFamily=Architects Daughter;fontSource=https%3A%2F%2Ffonts.googleapis.com%2Fcss%3Ffamily%3DArchitects%2BDaughter;fontSize=14;labelBackgroundColor=none;fontColor=#1A1A1A;" parent="1" vertex="1">
          <mxGeometry x="395.5" y="495" width="60" height="30" as="geometry" />
        </mxCell>
        <mxCell id="I46w1pYErF1tp79w03PN-43" value="&lt;b&gt;&lt;font style=&quot;font-size: 16px;&quot;&gt;EXECUTE&lt;/font&gt;&lt;/b&gt;" style="text;html=1;align=center;verticalAlign=middle;whiteSpace=wrap;rounded=0;fontFamily=Architects Daughter;fontSource=https%3A%2F%2Ffonts.googleapis.com%2Fcss%3Ffamily%3DArchitects%2BDaughter;fontSize=14;labelBackgroundColor=none;fontColor=#1A1A1A;" parent="1" vertex="1">
          <mxGeometry x="632.5" y="495" width="60" height="30" as="geometry" />
        </mxCell>
        <mxCell id="I46w1pYErF1tp79w03PN-44" value="&lt;b&gt;&lt;font style=&quot;font-size: 16px;&quot;&gt;PLAN&lt;/font&gt;&lt;/b&gt;" style="text;html=1;align=center;verticalAlign=middle;whiteSpace=wrap;rounded=0;fontFamily=Architects Daughter;fontSource=https%3A%2F%2Ffonts.googleapis.com%2Fcss%3Ffamily%3DArchitects%2BDaughter;fontSize=14;labelBackgroundColor=none;fontColor=#1A1A1A;" parent="1" vertex="1">
          <mxGeometry x="500.5" y="495" width="60" height="30" as="geometry" />
        </mxCell>
        <mxCell id="I46w1pYErF1tp79w03PN-45" value="&lt;b&gt;&lt;font style=&quot;font-size: 16px;&quot;&gt;REVIEW&lt;/font&gt;&lt;/b&gt;" style="text;html=1;align=center;verticalAlign=middle;whiteSpace=wrap;rounded=0;fontFamily=Architects Daughter;fontSource=https%3A%2F%2Ffonts.googleapis.com%2Fcss%3Ffamily%3DArchitects%2BDaughter;fontSize=14;labelBackgroundColor=none;fontColor=#1A1A1A;" parent="1" vertex="1">
          <mxGeometry x="742.5" y="495" width="60" height="30" as="geometry" />
        </mxCell>
        <mxCell id="PB7MgOYjxUeBE9ouH02R-3" value="" style="shape=flexArrow;endArrow=classic;html=1;rounded=0;hachureGap=4;fontFamily=Architects Daughter;fontSource=https%3A%2F%2Ffonts.googleapis.com%2Fcss%3Ffamily%3DArchitects%2BDaughter;labelBackgroundColor=none;fontColor=default;fillStyle=solid;strokeColor=#82b366;fillColor=#d5e8d4;" parent="1" edge="1">
          <mxGeometry width="50" height="50" relative="1" as="geometry">
            <mxPoint x="829.5" y="492.65999999999997" as="sourcePoint" />
            <mxPoint x="889.5" y="492.65999999999997" as="targetPoint" />
          </mxGeometry>
        </mxCell>
        <mxCell id="PB7MgOYjxUeBE9ouH02R-6" value="" style="shape=flexArrow;endArrow=classic;html=1;rounded=0;hachureGap=4;fontFamily=Architects Daughter;fontSource=https%3A%2F%2Ffonts.googleapis.com%2Fcss%3Ffamily%3DArchitects%2BDaughter;labelBackgroundColor=none;fontColor=default;fillStyle=solid;strokeColor=#82b366;fillColor=#d5e8d4;" parent="1" edge="1">
          <mxGeometry width="50" height="50" relative="1" as="geometry">
            <mxPoint x="192.5" y="488.65999999999997" as="sourcePoint" />
            <mxPoint x="252.5" y="488.65999999999997" as="targetPoint" />
          </mxGeometry>
        </mxCell>
        <mxCell id="I46w1pYErF1tp79w03PN-34" value="&lt;div style=&quot;&quot;&gt;&lt;span style=&quot;font-size: 22px;&quot;&gt;&lt;b&gt;DELIVERABLES&lt;/b&gt;&lt;/span&gt;&lt;br&gt;&lt;/div&gt;" style="text;html=1;align=center;verticalAlign=middle;whiteSpace=wrap;rounded=0;fontFamily=Architects Daughter;fontSource=https%3A%2F%2Ffonts.googleapis.com%2Fcss%3Ffamily%3DArchitects%2BDaughter;labelBackgroundColor=none;fontColor=#1A1A1A;" parent="1" vertex="1">
          <mxGeometry x="881.5" y="459" width="200" height="60" as="geometry" />
        </mxCell>
        <mxCell id="69B2gRSznvLA6FT3gJxz-19" value="&lt;div style=&quot;&quot;&gt;&lt;span style=&quot;font-size: 22px;&quot;&gt;&lt;b&gt;PROPOSAL&lt;/b&gt;&lt;/span&gt;&lt;br&gt;&lt;/div&gt;" style="text;html=1;align=center;verticalAlign=middle;whiteSpace=wrap;rounded=0;fontFamily=Architects Daughter;fontSource=https%3A%2F%2Ffonts.googleapis.com%2Fcss%3Ffamily%3DArchitects%2BDaughter;labelBackgroundColor=none;fontColor=#1A1A1A;" parent="1" vertex="1">
          <mxGeometry x="881.5" y="623" width="200" height="60" as="geometry" />
        </mxCell>
        <mxCell id="69B2gRSznvLA6FT3gJxz-21" value="" style="curved=1;endArrow=classic;html=1;rounded=0;strokeColor=#182E3E;fontFamily=Helvetica;fontSize=12;fontColor=#1A1A1A;labelBackgroundColor=none;exitX=0.991;exitY=0.586;exitDx=0;exitDy=0;exitPerimeter=0;entryX=0.143;entryY=0.45;entryDx=0;entryDy=0;entryPerimeter=0;dashed=1;dashPattern=12 12;" parent="1" source="I46w1pYErF1tp79w03PN-21" target="69B2gRSznvLA6FT3gJxz-19" edge="1">
          <mxGeometry width="50" height="50" relative="1" as="geometry">
            <mxPoint x="859" y="730" as="sourcePoint" />
            <mxPoint x="900" y="680" as="targetPoint" />
            <Array as="points">
              <mxPoint x="590" y="610" />
              <mxPoint x="784" y="650" />
            </Array>
          </mxGeometry>
        </mxCell>
        <mxCell id="69B2gRSznvLA6FT3gJxz-22" value="" style="rounded=1;whiteSpace=wrap;html=1;strokeWidth=3;dashed=1;dashPattern=1 2;glass=1;labelBackgroundColor=none;fillColor=none;strokeColor=#909090;fontColor=#1A1A1A;" parent="1" vertex="1">
          <mxGeometry x="603.5" y="391" width="226.5" height="180" as="geometry" />
        </mxCell>
        <mxCell id="69B2gRSznvLA6FT3gJxz-26" value="" style="shape=flexArrow;endArrow=classic;startArrow=classic;html=1;rounded=0;strokeColor=#6c8ebf;fontFamily=Helvetica;fontSize=12;fontColor=#1A1A1A;labelBackgroundColor=none;entryX=0.5;entryY=1;entryDx=0;entryDy=0;width=16;startSize=7.325714285714286;strokeWidth=2;fillColor=#dae8fc;" parent="1" target="I46w1pYErF1tp79w03PN-21" edge="1">
          <mxGeometry width="100" height="100" relative="1" as="geometry">
            <mxPoint x="500" y="720" as="sourcePoint" />
            <mxPoint x="440.5" y="608.41" as="targetPoint" />
            <Array as="points">
              <mxPoint x="424" y="720" />
            </Array>
          </mxGeometry>
        </mxCell>
        <mxCell id="69B2gRSznvLA6FT3gJxz-27" value="" style="shape=flexArrow;endArrow=classic;startArrow=classic;html=1;rounded=0;strokeColor=#6c8ebf;fontFamily=Helvetica;fontSize=12;fontColor=#1A1A1A;labelBackgroundColor=none;entryX=0.5;entryY=1;entryDx=0;entryDy=0;width=16;startSize=7.325714285714286;strokeWidth=2;fillColor=#dae8fc;" parent="1" edge="1">
          <mxGeometry width="100" height="100" relative="1" as="geometry">
            <mxPoint x="663" y="718" as="sourcePoint" />
            <mxPoint x="732.5" y="571" as="targetPoint" />
            <Array as="points">
              <mxPoint x="732.5" y="719" />
            </Array>
          </mxGeometry>
        </mxCell>
        <mxCell id="IQ6ZXslncZgpIOV0eOxL-2" value="&lt;h1 style=&quot;color: rgb(26, 26, 26);&quot;&gt;&lt;font face=&quot;Architects Daughter&quot; color=&quot;#1a1a1a&quot;&gt;&lt;span style=&quot;font-size: 38px;&quot;&gt;Step 1: Understand Scope &amp;amp; Requirements&lt;/span&gt;&lt;/font&gt;&lt;br&gt;&lt;/h1&gt;" style="rounded=0;whiteSpace=wrap;arcSize=50;strokeWidth=2;sketch=1;curveFitting=1;jiggle=2;fillColor=#B2C9AB;strokeColor=#788AA3;labelBackgroundColor=none;fontColor=#46495D;fontSize=24;html=1;" parent="1" vertex="1">
          <mxGeometry x="-528" y="1250" width="790" height="63" as="geometry" />
        </mxCell>
        <mxCell id="IQ6ZXslncZgpIOV0eOxL-14" value="Inventory Codebase" style="whiteSpace=wrap;strokeWidth=2;rounded=0;labelBackgroundColor=none;sketch=1;curveFitting=1;jiggle=2;fillColor=#fff2cc;strokeColor=#d6b656;fontSize=24;fontFamily=Architects Daughter;fontSource=https%3A%2F%2Ffonts.googleapis.com%2Fcss%3Ffamily%3DArchitects%2BDaughter;" parent="1" vertex="1">
          <mxGeometry x="-539" y="1780" width="198" height="54" as="geometry" />
        </mxCell>
        <mxCell id="IQ6ZXslncZgpIOV0eOxL-15" value="Parse Source Files" style="whiteSpace=wrap;strokeWidth=2;rounded=0;labelBackgroundColor=none;sketch=1;curveFitting=1;jiggle=2;fillColor=#fff2cc;strokeColor=#d6b656;fontSize=24;fontFamily=Architects Daughter;fontSource=https%3A%2F%2Ffonts.googleapis.com%2Fcss%3Ffamily%3DArchitects%2BDaughter;" parent="1" vertex="1">
          <mxGeometry x="-292" y="1780" width="188" height="54" as="geometry" />
        </mxCell>
        <mxCell id="IQ6ZXslncZgpIOV0eOxL-16" value="Map Dependencies" style="whiteSpace=wrap;strokeWidth=2;rounded=0;labelBackgroundColor=none;sketch=1;curveFitting=1;jiggle=2;fillColor=#fff2cc;strokeColor=#d6b656;fontSize=24;fontFamily=Architects Daughter;fontSource=https%3A%2F%2Ffonts.googleapis.com%2Fcss%3Ffamily%3DArchitects%2BDaughter;" parent="1" vertex="1">
          <mxGeometry x="-54" y="1780" width="191" height="54" as="geometry" />
        </mxCell>
        <mxCell id="IQ6ZXslncZgpIOV0eOxL-17" value="Extract Comments" style="whiteSpace=wrap;strokeWidth=2;rounded=0;labelBackgroundColor=none;sketch=1;curveFitting=1;jiggle=2;fillColor=#fff2cc;strokeColor=#d6b656;fontSize=24;fontFamily=Architects Daughter;fontSource=https%3A%2F%2Ffonts.googleapis.com%2Fcss%3Ffamily%3DArchitects%2BDaughter;" parent="1" vertex="1">
          <mxGeometry x="188" y="1780" width="186" height="54" as="geometry" />
        </mxCell>
        <mxCell id="IQ6ZXslncZgpIOV0eOxL-18" value="Identify Business Logic" style="whiteSpace=wrap;strokeWidth=2;rounded=0;labelBackgroundColor=none;sketch=1;curveFitting=1;jiggle=2;fillColor=#fff2cc;strokeColor=#d6b656;fontSize=24;fontFamily=Architects Daughter;fontSource=https%3A%2F%2Ffonts.googleapis.com%2Fcss%3Ffamily%3DArchitects%2BDaughter;" parent="1" vertex="1">
          <mxGeometry x="424" y="1780" width="219" height="54" as="geometry" />
        </mxCell>
        <mxCell id="IQ6ZXslncZgpIOV0eOxL-19" value="Define Hierarchy" style="whiteSpace=wrap;strokeWidth=2;rounded=0;labelBackgroundColor=none;sketch=1;curveFitting=1;jiggle=2;fillColor=#fff2cc;strokeColor=#d6b656;fontSize=24;fontFamily=Architects Daughter;fontSource=https%3A%2F%2Ffonts.googleapis.com%2Fcss%3Ffamily%3DArchitects%2BDaughter;" parent="1" vertex="1">
          <mxGeometry x="-539" y="2150" width="174" height="54" as="geometry" />
        </mxCell>
        <mxCell id="IQ6ZXslncZgpIOV0eOxL-20" value="Categorize Information" style="whiteSpace=wrap;strokeWidth=2;rounded=0;labelBackgroundColor=none;sketch=1;curveFitting=1;jiggle=2;fillColor=#fff2cc;strokeColor=#d6b656;fontSize=24;fontFamily=Architects Daughter;fontSource=https%3A%2F%2Ffonts.googleapis.com%2Fcss%3Ffamily%3DArchitects%2BDaughter;" parent="1" vertex="1">
          <mxGeometry x="-316" y="2150" width="215" height="54" as="geometry" />
        </mxCell>
        <mxCell id="IQ6ZXslncZgpIOV0eOxL-21" value="Create Logical Relationships" style="whiteSpace=wrap;strokeWidth=2;rounded=0;labelBackgroundColor=none;sketch=1;curveFitting=1;jiggle=2;fillColor=#fff2cc;strokeColor=#d6b656;fontSize=24;fontFamily=Architects Daughter;fontSource=https%3A%2F%2Ffonts.googleapis.com%2Fcss%3Ffamily%3DArchitects%2BDaughter;" parent="1" vertex="1">
          <mxGeometry x="-51" y="2150" width="256" height="54" as="geometry" />
        </mxCell>
        <mxCell id="IQ6ZXslncZgpIOV0eOxL-22" value="Choose Technology Stack" style="whiteSpace=wrap;strokeWidth=2;rounded=0;labelBackgroundColor=none;sketch=1;curveFitting=1;jiggle=2;fillColor=#fff2cc;strokeColor=#d6b656;fontSize=24;fontFamily=Architects Daughter;fontSource=https%3A%2F%2Ffonts.googleapis.com%2Fcss%3Ffamily%3DArchitects%2BDaughter;" parent="1" vertex="1">
          <mxGeometry x="-539" y="2482" width="238" height="54" as="geometry" />
        </mxCell>
        <mxCell id="IQ6ZXslncZgpIOV0eOxL-23" value="Implement Access Control" style="whiteSpace=wrap;strokeWidth=2;rounded=0;labelBackgroundColor=none;sketch=1;curveFitting=1;jiggle=2;fillColor=#fff2cc;strokeColor=#d6b656;fontSize=24;fontFamily=Architects Daughter;fontSource=https%3A%2F%2Ffonts.googleapis.com%2Fcss%3Ffamily%3DArchitects%2BDaughter;" parent="1" vertex="1">
          <mxGeometry x="-251" y="2482" width="240" height="54" as="geometry" />
        </mxCell>
        <mxCell id="IQ6ZXslncZgpIOV0eOxL-24" value="Design User Interface" style="whiteSpace=wrap;strokeWidth=2;rounded=0;labelBackgroundColor=none;sketch=1;curveFitting=1;jiggle=2;fillColor=#fff2cc;strokeColor=#d6b656;fontSize=24;fontFamily=Architects Daughter;fontSource=https%3A%2F%2Ffonts.googleapis.com%2Fcss%3Ffamily%3DArchitects%2BDaughter;" parent="1" vertex="1">
          <mxGeometry x="39" y="2482" width="207" height="54" as="geometry" />
        </mxCell>
        <mxCell id="IQ6ZXslncZgpIOV0eOxL-25" value="Enable Export Options" style="whiteSpace=wrap;strokeWidth=2;rounded=0;labelBackgroundColor=none;sketch=1;curveFitting=1;jiggle=2;fillColor=#fff2cc;strokeColor=#d6b656;fontSize=24;fontFamily=Architects Daughter;fontSource=https%3A%2F%2Ffonts.googleapis.com%2Fcss%3Ffamily%3DArchitects%2BDaughter;" parent="1" vertex="1">
          <mxGeometry x="296" y="2482" width="214" height="54" as="geometry" />
        </mxCell>
        <mxCell id="IQ6ZXslncZgpIOV0eOxL-26" value="Populate Tool" style="whiteSpace=wrap;strokeWidth=2;rounded=0;labelBackgroundColor=none;sketch=1;curveFitting=1;jiggle=2;fillColor=#fff2cc;strokeColor=#d6b656;fontSize=24;fontFamily=Architects Daughter;fontSource=https%3A%2F%2Ffonts.googleapis.com%2Fcss%3Ffamily%3DArchitects%2BDaughter;" parent="1" vertex="1">
          <mxGeometry x="-541" y="2790" width="153" height="54" as="geometry" />
        </mxCell>
        <mxCell id="IQ6ZXslncZgpIOV0eOxL-27" value="Validate Accuracy" style="whiteSpace=wrap;strokeWidth=2;rounded=0;labelBackgroundColor=none;sketch=1;curveFitting=1;jiggle=2;fillColor=#fff2cc;strokeColor=#d6b656;fontSize=24;fontFamily=Architects Daughter;fontSource=https%3A%2F%2Ffonts.googleapis.com%2Fcss%3Ffamily%3DArchitects%2BDaughter;" parent="1" vertex="1">
          <mxGeometry x="-337" y="2790" width="182" height="54" as="geometry" />
        </mxCell>
        <mxCell id="IQ6ZXslncZgpIOV0eOxL-28" value="Iterate Based on Feedback" style="whiteSpace=wrap;strokeWidth=2;rounded=0;labelBackgroundColor=none;sketch=1;curveFitting=1;jiggle=2;fillColor=#fff2cc;strokeColor=#d6b656;fontSize=24;fontFamily=Architects Daughter;fontSource=https%3A%2F%2Ffonts.googleapis.com%2Fcss%3Ffamily%3DArchitects%2BDaughter;" parent="1" vertex="1">
          <mxGeometry x="-105" y="2790" width="242" height="54" as="geometry" />
        </mxCell>
        <mxCell id="IQ6ZXslncZgpIOV0eOxL-29" value="Deploy Tool" style="whiteSpace=wrap;strokeWidth=2;rounded=0;labelBackgroundColor=none;sketch=1;curveFitting=1;jiggle=2;fillColor=#fff2cc;strokeColor=#d6b656;fontSize=24;fontFamily=Architects Daughter;fontSource=https%3A%2F%2Ffonts.googleapis.com%2Fcss%3Ffamily%3DArchitects%2BDaughter;" parent="1" vertex="1">
          <mxGeometry x="-560" y="3110" width="141" height="54" as="geometry" />
        </mxCell>
        <mxCell id="IQ6ZXslncZgpIOV0eOxL-30" value="Set Up Maintenance" style="whiteSpace=wrap;strokeWidth=2;rounded=0;labelBackgroundColor=none;sketch=1;curveFitting=1;jiggle=2;fillColor=#fff2cc;strokeColor=#d6b656;fontSize=24;fontFamily=Architects Daughter;fontSource=https%3A%2F%2Ffonts.googleapis.com%2Fcss%3Ffamily%3DArchitects%2BDaughter;" parent="1" vertex="1">
          <mxGeometry x="-369" y="3110" width="197" height="54" as="geometry" />
        </mxCell>
        <mxCell id="IQ6ZXslncZgpIOV0eOxL-31" value="Provide Training" style="whiteSpace=wrap;strokeWidth=2;rounded=0;labelBackgroundColor=none;sketch=1;curveFitting=1;jiggle=2;fillColor=#fff2cc;strokeColor=#d6b656;fontSize=24;fontFamily=Architects Daughter;fontSource=https%3A%2F%2Ffonts.googleapis.com%2Fcss%3Ffamily%3DArchitects%2BDaughter;" parent="1" vertex="1">
          <mxGeometry x="-122" y="3110" width="172" height="54" as="geometry" />
        </mxCell>
        <mxCell id="IQ6ZXslncZgpIOV0eOxL-33" value="Clear View of Corporate System" style="whiteSpace=wrap;strokeWidth=2;rounded=0;labelBackgroundColor=none;sketch=1;curveFitting=1;jiggle=2;fillColor=#fff2cc;strokeColor=#d6b656;fontSize=24;fontFamily=Architects Daughter;fontSource=https%3A%2F%2Ffonts.googleapis.com%2Fcss%3Ffamily%3DArchitects%2BDaughter;" parent="1" vertex="1">
          <mxGeometry x="-560" y="3580" width="260" height="78" as="geometry" />
        </mxCell>
        <mxCell id="IQ6ZXslncZgpIOV0eOxL-34" value="Reflects Logical Relationships" style="whiteSpace=wrap;strokeWidth=2;rounded=0;labelBackgroundColor=none;sketch=1;curveFitting=1;jiggle=2;fillColor=#fff2cc;strokeColor=#d6b656;fontSize=24;fontFamily=Architects Daughter;fontSource=https%3A%2F%2Ffonts.googleapis.com%2Fcss%3Ffamily%3DArchitects%2BDaughter;" parent="1" vertex="1">
          <mxGeometry x="-250" y="3580" width="260" height="78" as="geometry" />
        </mxCell>
        <mxCell id="IQ6ZXslncZgpIOV0eOxL-35" value="Adapts to User Roles &amp; Expertise" style="whiteSpace=wrap;strokeWidth=2;rounded=0;labelBackgroundColor=none;sketch=1;curveFitting=1;jiggle=2;fillColor=#fff2cc;strokeColor=#d6b656;fontSize=24;fontFamily=Architects Daughter;fontSource=https%3A%2F%2Ffonts.googleapis.com%2Fcss%3Ffamily%3DArchitects%2BDaughter;" parent="1" vertex="1">
          <mxGeometry x="60" y="3580" width="260" height="78" as="geometry" />
        </mxCell>
        <mxCell id="IQ6ZXslncZgpIOV0eOxL-79" value="" style="curved=1;startArrow=none;endArrow=block;exitX=0.5;exitY=1;entryX=0.5;entryY=0;rounded=0;labelBackgroundColor=none;fontColor=default;sketch=1;curveFitting=1;jiggle=2;fillColor=#fff2cc;strokeColor=#d6b656;" parent="1" edge="1">
          <mxGeometry relative="1" as="geometry">
            <Array as="points" />
            <mxPoint x="713" y="3523" as="targetPoint" />
          </mxGeometry>
        </mxCell>
        <mxCell id="IQ6ZXslncZgpIOV0eOxL-99" value="&lt;div&gt;&lt;h1&gt;&lt;b&gt;&lt;font&gt;Documenta Process&lt;/font&gt;&lt;/b&gt;&lt;/h1&gt;&lt;/div&gt;" style="text;html=1;align=center;verticalAlign=middle;whiteSpace=wrap;rounded=0;fontFamily=Architects Daughter;fontSource=https%3A%2F%2Ffonts.googleapis.com%2Fcss%3Ffamily%3DArchitects%2BDaughter;labelBackgroundColor=none;fontColor=#1A1A1A;fontSize=28;" parent="1" vertex="1">
          <mxGeometry x="-598" y="1050" width="978" height="30" as="geometry" />
        </mxCell>
        <mxCell id="IQ6ZXslncZgpIOV0eOxL-98" value="Ask Questions" style="whiteSpace=wrap;strokeWidth=2;sketch=1;curveFitting=1;jiggle=2;rounded=0;labelBackgroundColor=none;fontSize=28;fillColor=#fff2cc;strokeColor=#d6b656;fontStyle=1;fontFamily=Architects Daughter;fontSource=https%3A%2F%2Ffonts.googleapis.com%2Fcss%3Ffamily%3DArchitects%2BDaughter;" parent="1" vertex="1">
          <mxGeometry x="-528" y="1370" width="205.5" height="54" as="geometry" />
        </mxCell>
        <mxCell id="IQ6ZXslncZgpIOV0eOxL-100" value="&lt;h1 style=&quot;color: rgb(26, 26, 26);&quot;&gt;&lt;font face=&quot;Architects Daughter&quot; color=&quot;#1a1a1a&quot;&gt;&lt;span style=&quot;font-size: 38px;&quot;&gt;Step 2: Analyze Legacy Codebase&lt;/span&gt;&lt;/font&gt;&lt;br&gt;&lt;/h1&gt;" style="rounded=0;whiteSpace=wrap;arcSize=50;strokeWidth=2;sketch=1;curveFitting=1;jiggle=2;fillColor=#d5e8d4;strokeColor=#82b366;labelBackgroundColor=none;fontSize=24;html=1;" parent="1" vertex="1">
          <mxGeometry x="-539" y="1660" width="790" height="63" as="geometry" />
        </mxCell>
        <mxCell id="IQ6ZXslncZgpIOV0eOxL-101" value="&lt;h1 style=&quot;color: rgb(26, 26, 26);&quot;&gt;&lt;font face=&quot;Architects Daughter&quot; color=&quot;#1a1a1a&quot;&gt;&lt;span style=&quot;font-size: 38px;&quot;&gt;Step 3: Design Documentation Structure&lt;/span&gt;&lt;/font&gt;&lt;br&gt;&lt;/h1&gt;" style="rounded=0;whiteSpace=wrap;arcSize=50;strokeWidth=2;sketch=1;curveFitting=1;jiggle=2;fillColor=#B2C9AB;strokeColor=#788AA3;labelBackgroundColor=none;fontColor=#46495D;fontSize=24;html=1;" parent="1" vertex="1">
          <mxGeometry x="-539" y="2030" width="790" height="63" as="geometry" />
        </mxCell>
        <mxCell id="IQ6ZXslncZgpIOV0eOxL-102" value="&lt;h1 style=&quot;color: rgb(26, 26, 26);&quot;&gt;&lt;font face=&quot;Architects Daughter&quot; color=&quot;#1a1a1a&quot;&gt;&lt;span style=&quot;font-size: 38px;&quot;&gt;Step 4: Develop Documentation Tool&lt;/span&gt;&lt;/font&gt;&lt;br&gt;&lt;/h1&gt;" style="rounded=0;whiteSpace=wrap;arcSize=50;strokeWidth=2;sketch=1;curveFitting=1;jiggle=2;fillColor=#B2C9AB;strokeColor=#788AA3;labelBackgroundColor=none;fontColor=#46495D;fontSize=24;html=1;" parent="1" vertex="1">
          <mxGeometry x="-539" y="2360" width="790" height="63" as="geometry" />
        </mxCell>
        <mxCell id="IQ6ZXslncZgpIOV0eOxL-103" value="&lt;h1 style=&quot;color: rgb(26, 26, 26);&quot;&gt;&lt;font face=&quot;Architects Daughter&quot; color=&quot;#1a1a1a&quot;&gt;&lt;span style=&quot;font-size: 38px;&quot;&gt;Step 5: Populate &amp;amp; Validate Documentation&lt;/span&gt;&lt;/font&gt;&lt;br&gt;&lt;/h1&gt;" style="rounded=0;whiteSpace=wrap;arcSize=50;strokeWidth=2;sketch=1;curveFitting=1;jiggle=2;fillColor=#B2C9AB;strokeColor=#788AA3;labelBackgroundColor=none;fontColor=#46495D;fontSize=24;html=1;" parent="1" vertex="1">
          <mxGeometry x="-539" y="2659" width="790" height="63" as="geometry" />
        </mxCell>
        <mxCell id="IQ6ZXslncZgpIOV0eOxL-104" value="&lt;h1 style=&quot;color: rgb(26, 26, 26);&quot;&gt;&lt;font face=&quot;Architects Daughter&quot; color=&quot;#1a1a1a&quot;&gt;&lt;span style=&quot;font-size: 38px;&quot;&gt;Step 6: Deploy &amp;amp; Maintain Tool&lt;/span&gt;&lt;/font&gt;&lt;br&gt;&lt;/h1&gt;" style="rounded=0;whiteSpace=wrap;arcSize=50;strokeWidth=2;sketch=1;curveFitting=1;jiggle=2;fillColor=#B2C9AB;strokeColor=#788AA3;labelBackgroundColor=none;fontColor=#46495D;fontSize=24;html=1;" parent="1" vertex="1">
          <mxGeometry x="-560" y="2975" width="790" height="63" as="geometry" />
        </mxCell>
        <mxCell id="IQ6ZXslncZgpIOV0eOxL-105" value="&lt;h1 style=&quot;color: rgb(26, 26, 26);&quot;&gt;&lt;font face=&quot;Architects Daughter&quot; color=&quot;#1a1a1a&quot;&gt;&lt;span style=&quot;font-size: 38px;&quot;&gt;Final Output: Hierarchical, Dynamic, Secure Documentation System&lt;/span&gt;&lt;/font&gt;&lt;br&gt;&lt;/h1&gt;" style="rounded=0;whiteSpace=wrap;arcSize=50;strokeWidth=2;sketch=1;curveFitting=1;jiggle=2;fillColor=#B2C9AB;strokeColor=#788AA3;labelBackgroundColor=none;fontColor=#46495D;fontSize=24;html=1;" parent="1" vertex="1">
          <mxGeometry x="-560" y="3370" width="790" height="130" as="geometry" />
        </mxCell>
        <mxCell id="IQ6ZXslncZgpIOV0eOxL-106" value="" style="group;fontFamily=Architects Daughter;fontSource=https%3A%2F%2Ffonts.googleapis.com%2Fcss%3Ffamily%3DArchitects%2BDaughter;fontSize=24;" parent="1" vertex="1" connectable="0">
          <mxGeometry x="-528" y="1484" width="1909.75" height="54" as="geometry" />
        </mxCell>
        <mxCell id="IQ6ZXslncZgpIOV0eOxL-88" value="Goals of Tool?" style="whiteSpace=wrap;strokeWidth=2;sketch=1;curveFitting=1;jiggle=2;rounded=0;labelBackgroundColor=none;fontSize=24;fillColor=#fff2cc;strokeColor=#d6b656;fontFamily=Architects Daughter;fontSource=https%3A%2F%2Ffonts.googleapis.com%2Fcss%3Ffamily%3DArchitects%2BDaughter;" parent="IQ6ZXslncZgpIOV0eOxL-106" vertex="1">
          <mxGeometry width="159" height="54" as="geometry" />
        </mxCell>
        <mxCell id="IQ6ZXslncZgpIOV0eOxL-89" value="Systems &amp; Architectures?" style="whiteSpace=wrap;strokeWidth=2;sketch=1;curveFitting=1;jiggle=2;rounded=0;labelBackgroundColor=none;fontSize=24;fillColor=#fff2cc;strokeColor=#d6b656;fontFamily=Architects Daughter;fontSource=https%3A%2F%2Ffonts.googleapis.com%2Fcss%3Ffamily%3DArchitects%2BDaughter;" parent="IQ6ZXslncZgpIOV0eOxL-106" vertex="1">
          <mxGeometry x="183" width="237" height="54" as="geometry" />
        </mxCell>
        <mxCell id="IQ6ZXslncZgpIOV0eOxL-90" value="Languages &amp; File Types?" style="whiteSpace=wrap;strokeWidth=2;sketch=1;curveFitting=1;jiggle=2;rounded=0;labelBackgroundColor=none;fontSize=24;fillColor=#fff2cc;strokeColor=#d6b656;fontFamily=Architects Daughter;fontSource=https%3A%2F%2Ffonts.googleapis.com%2Fcss%3Ffamily%3DArchitects%2BDaughter;" parent="IQ6ZXslncZgpIOV0eOxL-106" vertex="1">
          <mxGeometry x="445.5" width="232" height="54" as="geometry" />
        </mxCell>
        <mxCell id="IQ6ZXslncZgpIOV0eOxL-91" value="Application Structure?" style="whiteSpace=wrap;strokeWidth=2;sketch=1;curveFitting=1;jiggle=2;rounded=0;labelBackgroundColor=none;fontSize=24;fillColor=#fff2cc;strokeColor=#d6b656;fontFamily=Architects Daughter;fontSource=https%3A%2F%2Ffonts.googleapis.com%2Fcss%3Ffamily%3DArchitects%2BDaughter;" parent="IQ6ZXslncZgpIOV0eOxL-106" vertex="1">
          <mxGeometry x="695.5" width="212" height="54" as="geometry" />
        </mxCell>
        <mxCell id="IQ6ZXslncZgpIOV0eOxL-92" value="Level of Detail?" style="whiteSpace=wrap;strokeWidth=2;sketch=1;curveFitting=1;jiggle=2;rounded=0;labelBackgroundColor=none;fontSize=24;fillColor=#fff2cc;strokeColor=#d6b656;fontFamily=Architects Daughter;fontSource=https%3A%2F%2Ffonts.googleapis.com%2Fcss%3Ffamily%3DArchitects%2BDaughter;" parent="IQ6ZXslncZgpIOV0eOxL-106" vertex="1">
          <mxGeometry x="925.5" width="165" height="54" as="geometry" />
        </mxCell>
        <mxCell id="IQ6ZXslncZgpIOV0eOxL-93" value="Intended Users?" style="whiteSpace=wrap;strokeWidth=2;sketch=1;curveFitting=1;jiggle=2;rounded=0;labelBackgroundColor=none;fontSize=24;fillColor=#fff2cc;strokeColor=#d6b656;fontFamily=Architects Daughter;fontSource=https%3A%2F%2Ffonts.googleapis.com%2Fcss%3Ffamily%3DArchitects%2BDaughter;" parent="IQ6ZXslncZgpIOV0eOxL-106" vertex="1">
          <mxGeometry x="1110.25" width="172" height="54" as="geometry" />
        </mxCell>
        <mxCell id="IQ6ZXslncZgpIOV0eOxL-94" value="Existing Tools?" style="whiteSpace=wrap;strokeWidth=2;sketch=1;curveFitting=1;jiggle=2;rounded=0;labelBackgroundColor=none;fontSize=24;fillColor=#fff2cc;strokeColor=#d6b656;fontFamily=Architects Daughter;fontSource=https%3A%2F%2Ffonts.googleapis.com%2Fcss%3Ffamily%3DArchitects%2BDaughter;" parent="IQ6ZXslncZgpIOV0eOxL-106" vertex="1">
          <mxGeometry x="1297.25" width="165" height="54" as="geometry" />
        </mxCell>
        <mxCell id="IQ6ZXslncZgpIOV0eOxL-95" value="Compliance Requirements?" style="whiteSpace=wrap;strokeWidth=2;sketch=1;curveFitting=1;jiggle=2;rounded=0;labelBackgroundColor=none;fontSize=24;fillColor=#fff2cc;strokeColor=#d6b656;fontFamily=Architects Daughter;fontSource=https%3A%2F%2Ffonts.googleapis.com%2Fcss%3Ffamily%3DArchitects%2BDaughter;" parent="IQ6ZXslncZgpIOV0eOxL-106" vertex="1">
          <mxGeometry x="1479.75" width="249" height="54" as="geometry" />
        </mxCell>
        <mxCell id="IQ6ZXslncZgpIOV0eOxL-96" value="Output Format?" style="whiteSpace=wrap;strokeWidth=2;sketch=1;curveFitting=1;jiggle=2;rounded=0;labelBackgroundColor=none;fontSize=24;fillColor=#fff2cc;strokeColor=#d6b656;fontFamily=Architects Daughter;fontSource=https%3A%2F%2Ffonts.googleapis.com%2Fcss%3Ffamily%3DArchitects%2BDaughter;" parent="IQ6ZXslncZgpIOV0eOxL-106" vertex="1">
          <mxGeometry x="1742.75" width="167" height="54" as="geometry" />
        </mxCell>
        <mxCell id="vcGLAYSt9LBhHn7l5LKz-1" value="Allignment with Corporate Processes" style="whiteSpace=wrap;strokeWidth=2;rounded=0;labelBackgroundColor=none;sketch=1;curveFitting=1;jiggle=2;fillColor=#fff2cc;strokeColor=#d6b656;fontSize=24;fontFamily=Architects Daughter;fontSource=https%3A%2F%2Ffonts.googleapis.com%2Fcss%3Ffamily%3DArchitects%2BDaughter;" vertex="1" parent="1">
          <mxGeometry x="367.5" y="3580" width="260" height="78" as="geometry" />
        </mxCell>
        <mxCell id="vcGLAYSt9LBhHn7l5LKz-2" value="Deploy Tool" style="whiteSpace=wrap;strokeWidth=2;rounded=0;labelBackgroundColor=none;sketch=1;curveFitting=1;jiggle=2;fillColor=#fff2cc;strokeColor=#d6b656;fontSize=24;fontFamily=Architects Daughter;fontSource=https%3A%2F%2Ffonts.googleapis.com%2Fcss%3Ffamily%3DArchitects%2BDaughter;" vertex="1" parent="1">
          <mxGeometry x="-560" y="3895" width="141" height="54" as="geometry" />
        </mxCell>
        <mxCell id="vcGLAYSt9LBhHn7l5LKz-3" value="Set Up Maintenance" style="whiteSpace=wrap;strokeWidth=2;rounded=0;labelBackgroundColor=none;sketch=1;curveFitting=1;jiggle=2;fillColor=#fff2cc;strokeColor=#d6b656;fontSize=24;fontFamily=Architects Daughter;fontSource=https%3A%2F%2Ffonts.googleapis.com%2Fcss%3Ffamily%3DArchitects%2BDaughter;" vertex="1" parent="1">
          <mxGeometry x="-369" y="3895" width="197" height="54" as="geometry" />
        </mxCell>
        <mxCell id="vcGLAYSt9LBhHn7l5LKz-4" value="Provide Training" style="whiteSpace=wrap;strokeWidth=2;rounded=0;labelBackgroundColor=none;sketch=1;curveFitting=1;jiggle=2;fillColor=#fff2cc;strokeColor=#d6b656;fontSize=24;fontFamily=Architects Daughter;fontSource=https%3A%2F%2Ffonts.googleapis.com%2Fcss%3Ffamily%3DArchitects%2BDaughter;" vertex="1" parent="1">
          <mxGeometry x="-122" y="3895" width="172" height="54" as="geometry" />
        </mxCell>
        <mxCell id="vcGLAYSt9LBhHn7l5LKz-5" value="&lt;h1 style=&quot;color: rgb(26, 26, 26);&quot;&gt;&lt;font face=&quot;Architects Daughter&quot; color=&quot;#1a1a1a&quot;&gt;&lt;span style=&quot;font-size: 38px;&quot;&gt;Knowledge Retention and Integration&lt;/span&gt;&lt;/font&gt;&lt;br&gt;&lt;/h1&gt;" style="rounded=0;whiteSpace=wrap;arcSize=50;strokeWidth=2;sketch=1;curveFitting=1;jiggle=2;fillColor=#B2C9AB;strokeColor=#788AA3;labelBackgroundColor=none;fontColor=#46495D;fontSize=24;html=1;" vertex="1" parent="1">
          <mxGeometry x="-560" y="3760" width="790" height="63" as="geometry" />
        </mxCell>
        <mxCell id="vcGLAYSt9LBhHn7l5LKz-6" value="7. Training and Maintenance" style="whiteSpace=wrap;strokeWidth=2;fillColor=#d5e8d4;strokeColor=#82b366;fillStyle=hatch;fontFamily=Architects Daughter;fontSource=https%3A%2F%2Ffonts.googleapis.com%2Fcss%3Ffamily%3DArchitects%2BDaughter;fontSize=38;fontStyle=1;sketch=1;curveFitting=1;jiggle=2;" vertex="1" parent="1">
          <mxGeometry x="-560" y="6355" width="811" height="90" as="geometry" />
        </mxCell>
        <mxCell id="vcGLAYSt9LBhHn7l5LKz-7" value="6. Verification and Validation" style="whiteSpace=wrap;strokeWidth=2;fillColor=#d5e8d4;strokeColor=#82b366;fillStyle=hatch;fontFamily=Architects Daughter;fontSource=https%3A%2F%2Ffonts.googleapis.com%2Fcss%3Ffamily%3DArchitects%2BDaughter;fontSize=38;fontStyle=1;sketch=1;curveFitting=1;jiggle=2;" vertex="1" parent="1">
          <mxGeometry x="-560" y="6065" width="811" height="80" as="geometry" />
        </mxCell>
        <mxCell id="vcGLAYSt9LBhHn7l5LKz-8" value="5. Workflow Implementation" style="whiteSpace=wrap;strokeWidth=2;fillColor=#d5e8d4;strokeColor=#82b366;fillStyle=hatch;fontFamily=Architects Daughter;fontSource=https%3A%2F%2Ffonts.googleapis.com%2Fcss%3Ffamily%3DArchitects%2BDaughter;fontSize=38;fontStyle=1;sketch=1;curveFitting=1;jiggle=2;" vertex="1" parent="1">
          <mxGeometry x="-560" y="5645" width="821" height="80" as="geometry" />
        </mxCell>
        <mxCell id="vcGLAYSt9LBhHn7l5LKz-9" value="4. System Development" style="whiteSpace=wrap;strokeWidth=2;fillColor=#d5e8d4;strokeColor=#82b366;fillStyle=hatch;fontFamily=Architects Daughter;fontSource=https%3A%2F%2Ffonts.googleapis.com%2Fcss%3Ffamily%3DArchitects%2BDaughter;fontSize=38;fontStyle=1;sketch=1;curveFitting=1;jiggle=2;" vertex="1" parent="1">
          <mxGeometry x="-549" y="5365" width="810" height="70" as="geometry" />
        </mxCell>
        <mxCell id="vcGLAYSt9LBhHn7l5LKz-10" value="3. Knowledge Organization" style="whiteSpace=wrap;strokeWidth=2;fillColor=#d5e8d4;strokeColor=#82b366;fillStyle=hatch;fontFamily=Architects Daughter;fontSource=https%3A%2F%2Ffonts.googleapis.com%2Fcss%3Ffamily%3DArchitects%2BDaughter;fontSize=38;fontStyle=1;sketch=1;curveFitting=1;jiggle=2;" vertex="1" parent="1">
          <mxGeometry x="-552" y="4815" width="812" height="80" as="geometry" />
        </mxCell>
        <mxCell id="vcGLAYSt9LBhHn7l5LKz-11" value="Linking" style="whiteSpace=wrap;strokeWidth=2;fillColor=#fff2cc;strokeColor=#d6b656;fillStyle=hatch;fontFamily=Architects Daughter;fontSource=https%3A%2F%2Ffonts.googleapis.com%2Fcss%3Ffamily%3DArchitects%2BDaughter;fontSize=20;" vertex="1" parent="1">
          <mxGeometry x="-550" y="4925" width="810" height="60" as="geometry" />
        </mxCell>
        <mxCell id="vcGLAYSt9LBhHn7l5LKz-12" value="Repository" style="whiteSpace=wrap;strokeWidth=2;fillColor=#fff2cc;strokeColor=#d6b656;fillStyle=hatch;fontFamily=Architects Daughter;fontSource=https%3A%2F%2Ffonts.googleapis.com%2Fcss%3Ffamily%3DArchitects%2BDaughter;fontSize=20;" vertex="1" parent="1">
          <mxGeometry x="-550" y="5125" width="811" height="60" as="geometry" />
        </mxCell>
        <mxCell id="vcGLAYSt9LBhHn7l5LKz-13" value="2. Knowledge Capture" style="whiteSpace=wrap;strokeWidth=2;fillColor=#d5e8d4;strokeColor=#82b366;fillStyle=hatch;fontFamily=Architects Daughter;fontSource=https%3A%2F%2Ffonts.googleapis.com%2Fcss%3Ffamily%3DArchitects%2BDaughter;fontSize=38;fontStyle=1;sketch=1;curveFitting=1;jiggle=2;" vertex="1" parent="1">
          <mxGeometry x="-551" y="4535" width="812" height="80" as="geometry" />
        </mxCell>
        <mxCell id="vcGLAYSt9LBhHn7l5LKz-14" value="1. Planning and Preparation" style="whiteSpace=wrap;strokeWidth=2;fillColor=#d5e8d4;strokeColor=#82b366;fillStyle=hatch;fontFamily=Architects Daughter;fontSource=https%3A%2F%2Ffonts.googleapis.com%2Fcss%3Ffamily%3DArchitects%2BDaughter;fontSize=38;fontStyle=1;sketch=1;curveFitting=1;jiggle=2;" vertex="1" parent="1">
          <mxGeometry x="-549" y="4250" width="810" height="75" as="geometry" />
        </mxCell>
        <mxCell id="vcGLAYSt9LBhHn7l5LKz-15" value="Identify Key Personnel" style="whiteSpace=wrap;strokeWidth=2;fillColor=#fff2cc;strokeColor=#d6b656;fillStyle=hatch;fontFamily=Architects Daughter;fontSource=https%3A%2F%2Ffonts.googleapis.com%2Fcss%3Ffamily%3DArchitects%2BDaughter;fontSize=20;" vertex="1" parent="1">
          <mxGeometry x="-560" y="4375" width="213" height="54" as="geometry" />
        </mxCell>
        <mxCell id="vcGLAYSt9LBhHn7l5LKz-16" value="Define Scope and Goals" style="whiteSpace=wrap;strokeWidth=2;fillColor=#fff2cc;strokeColor=#d6b656;fillStyle=hatch;fontFamily=Architects Daughter;fontSource=https%3A%2F%2Ffonts.googleapis.com%2Fcss%3Ffamily%3DArchitects%2BDaughter;fontSize=20;" vertex="1" parent="1">
          <mxGeometry x="-289" y="4375" width="224" height="54" as="geometry" />
        </mxCell>
        <mxCell id="vcGLAYSt9LBhHn7l5LKz-17" value="Develop Timeline &amp; Allocate Resources" style="whiteSpace=wrap;strokeWidth=2;fillColor=#fff2cc;strokeColor=#d6b656;fillStyle=hatch;fontFamily=Architects Daughter;fontSource=https%3A%2F%2Ffonts.googleapis.com%2Fcss%3Ffamily%3DArchitects%2BDaughter;fontSize=20;" vertex="1" parent="1">
          <mxGeometry y="4363" width="261" height="78" as="geometry" />
        </mxCell>
        <mxCell id="vcGLAYSt9LBhHn7l5LKz-18" value="Conduct Interviews" style="whiteSpace=wrap;strokeWidth=2;fillColor=#fff2cc;strokeColor=#d6b656;fillStyle=hatch;fontFamily=Architects Daughter;fontSource=https%3A%2F%2Ffonts.googleapis.com%2Fcss%3Ffamily%3DArchitects%2BDaughter;fontSize=20;" vertex="1" parent="1">
          <mxGeometry x="-549" y="4665" width="192" height="54" as="geometry" />
        </mxCell>
        <mxCell id="vcGLAYSt9LBhHn7l5LKz-19" value="Use Documentation Tools" style="whiteSpace=wrap;strokeWidth=2;fillColor=#fff2cc;strokeColor=#d6b656;fillStyle=hatch;fontFamily=Architects Daughter;fontSource=https%3A%2F%2Ffonts.googleapis.com%2Fcss%3Ffamily%3DArchitects%2BDaughter;fontSize=20;" vertex="1" parent="1">
          <mxGeometry x="-295" y="4665" width="236" height="54" as="geometry" />
        </mxCell>
        <mxCell id="vcGLAYSt9LBhHn7l5LKz-20" value="Implement Automated Tools" style="whiteSpace=wrap;strokeWidth=2;fillColor=#fff2cc;strokeColor=#d6b656;fillStyle=hatch;fontFamily=Architects Daughter;fontSource=https%3A%2F%2Ffonts.googleapis.com%2Fcss%3Ffamily%3DArchitects%2BDaughter;fontSize=20;" vertex="1" parent="1">
          <mxGeometry x="11" y="4665" width="251" height="54" as="geometry" />
        </mxCell>
        <mxCell id="vcGLAYSt9LBhHn7l5LKz-21" value="Centralized Repository" style="whiteSpace=wrap;strokeWidth=2;fillColor=#fff2cc;strokeColor=#d6b656;fillStyle=hatch;fontFamily=Architects Daughter;fontSource=https%3A%2F%2Ffonts.googleapis.com%2Fcss%3Ffamily%3DArchitects%2BDaughter;fontSize=20;" vertex="1" parent="1">
          <mxGeometry x="-552" y="5225" width="216" height="54" as="geometry" />
        </mxCell>
        <mxCell id="vcGLAYSt9LBhHn7l5LKz-22" value="Integrate with Codebases" style="whiteSpace=wrap;strokeWidth=2;fillColor=#fff2cc;strokeColor=#d6b656;fillStyle=hatch;fontFamily=Architects Daughter;fontSource=https%3A%2F%2Ffonts.googleapis.com%2Fcss%3Ffamily%3DArchitects%2BDaughter;fontSize=20;" vertex="1" parent="1">
          <mxGeometry x="29" y="5225" width="233" height="54" as="geometry" />
        </mxCell>
        <mxCell id="vcGLAYSt9LBhHn7l5LKz-23" value="Tag &amp; Categorize Knowledge" style="whiteSpace=wrap;strokeWidth=2;fillColor=#fff2cc;strokeColor=#d6b656;fillStyle=hatch;fontFamily=Architects Daughter;fontSource=https%3A%2F%2Ffonts.googleapis.com%2Fcss%3Ffamily%3DArchitects%2BDaughter;fontSize=20;" vertex="1" parent="1">
          <mxGeometry x="-548.5" y="5025" width="257" height="54" as="geometry" />
        </mxCell>
        <mxCell id="vcGLAYSt9LBhHn7l5LKz-24" value="Describe Purpose in Code" style="whiteSpace=wrap;strokeWidth=2;fillColor=#fff2cc;strokeColor=#d6b656;fillStyle=hatch;fontFamily=Architects Daughter;fontSource=https%3A%2F%2Ffonts.googleapis.com%2Fcss%3Ffamily%3DArchitects%2BDaughter;fontSize=20;" vertex="1" parent="1">
          <mxGeometry x="18" y="5025" width="238" height="54" as="geometry" />
        </mxCell>
        <mxCell id="vcGLAYSt9LBhHn7l5LKz-25" value="Design Intuitive Interface" style="whiteSpace=wrap;strokeWidth=2;fillColor=#fff2cc;strokeColor=#d6b656;fillStyle=hatch;fontFamily=Architects Daughter;fontSource=https%3A%2F%2Ffonts.googleapis.com%2Fcss%3Ffamily%3DArchitects%2BDaughter;fontSize=20;" vertex="1" parent="1">
          <mxGeometry x="-549" y="5495" width="229" height="54" as="geometry" />
        </mxCell>
        <mxCell id="vcGLAYSt9LBhHn7l5LKz-26" value="Ensure Efficiency" style="whiteSpace=wrap;strokeWidth=2;fillColor=#fff2cc;strokeColor=#d6b656;fillStyle=hatch;fontFamily=Architects Daughter;fontSource=https%3A%2F%2Ffonts.googleapis.com%2Fcss%3Ffamily%3DArchitects%2BDaughter;fontSize=20;" vertex="1" parent="1">
          <mxGeometry x="83" y="5495" width="179" height="54" as="geometry" />
        </mxCell>
        <mxCell id="vcGLAYSt9LBhHn7l5LKz-27" value="Identify Key Personnel &amp; Expertise" style="whiteSpace=wrap;strokeWidth=2;fillColor=#fff2cc;strokeColor=#d6b656;fillStyle=hatch;fontFamily=Architects Daughter;fontSource=https%3A%2F%2Ffonts.googleapis.com%2Fcss%3Ffamily%3DArchitects%2BDaughter;fontSize=20;" vertex="1" parent="1">
          <mxGeometry x="-560" y="5785" width="260" height="50" as="geometry" />
        </mxCell>
        <mxCell id="vcGLAYSt9LBhHn7l5LKz-28" value="Capture Knowledge" style="whiteSpace=wrap;strokeWidth=2;fillColor=#fff2cc;strokeColor=#d6b656;fillStyle=hatch;fontFamily=Architects Daughter;fontSource=https%3A%2F%2Ffonts.googleapis.com%2Fcss%3Ffamily%3DArchitects%2BDaughter;fontSize=20;" vertex="1" parent="1">
          <mxGeometry x="-281" y="5785" width="194" height="54" as="geometry" />
        </mxCell>
        <mxCell id="vcGLAYSt9LBhHn7l5LKz-29" value="Organize &amp; Link Knowledge" style="whiteSpace=wrap;strokeWidth=2;fillColor=#fff2cc;strokeColor=#d6b656;fillStyle=hatch;fontFamily=Architects Daughter;fontSource=https%3A%2F%2Ffonts.googleapis.com%2Fcss%3Ffamily%3DArchitects%2BDaughter;fontSize=20;" vertex="1" parent="1">
          <mxGeometry x="-29" y="5785" width="249" height="54" as="geometry" />
        </mxCell>
        <mxCell id="vcGLAYSt9LBhHn7l5LKz-30" value="Develop &amp; Implement System" style="whiteSpace=wrap;strokeWidth=2;fillColor=#fff2cc;strokeColor=#d6b656;fillStyle=hatch;fontFamily=Architects Daughter;fontSource=https%3A%2F%2Ffonts.googleapis.com%2Fcss%3Ffamily%3DArchitects%2BDaughter;fontSize=20;" vertex="1" parent="1">
          <mxGeometry x="-560" y="5875" width="260" height="78" as="geometry" />
        </mxCell>
        <mxCell id="vcGLAYSt9LBhHn7l5LKz-31" value="Train Team Members" style="whiteSpace=wrap;strokeWidth=2;fillColor=#fff2cc;strokeColor=#d6b656;fillStyle=hatch;fontFamily=Architects Daughter;fontSource=https%3A%2F%2Ffonts.googleapis.com%2Fcss%3Ffamily%3DArchitects%2BDaughter;fontSize=20;" vertex="1" parent="1">
          <mxGeometry x="13.5" y="5895" width="203" height="54" as="geometry" />
        </mxCell>
        <mxCell id="vcGLAYSt9LBhHn7l5LKz-32" value="Implement Peer Reviews" style="whiteSpace=wrap;strokeWidth=2;fillColor=#fff2cc;strokeColor=#d6b656;fillStyle=hatch;fontFamily=Architects Daughter;fontSource=https%3A%2F%2Ffonts.googleapis.com%2Fcss%3Ffamily%3DArchitects%2BDaughter;fontSize=20;" vertex="1" parent="1">
          <mxGeometry x="-560" y="6195" width="228" height="54" as="geometry" />
        </mxCell>
        <mxCell id="vcGLAYSt9LBhHn7l5LKz-33" value="Ensure Completeness" style="whiteSpace=wrap;strokeWidth=2;fillColor=#fff2cc;strokeColor=#d6b656;fillStyle=hatch;fontFamily=Architects Daughter;fontSource=https%3A%2F%2Ffonts.googleapis.com%2Fcss%3Ffamily%3DArchitects%2BDaughter;fontSize=20;" vertex="1" parent="1">
          <mxGeometry x="40" y="6195" width="211" height="54" as="geometry" />
        </mxCell>
        <mxCell id="vcGLAYSt9LBhHn7l5LKz-34" value="Educate Team Members" style="whiteSpace=wrap;strokeWidth=2;fillColor=#fff2cc;strokeColor=#d6b656;fillStyle=hatch;fontFamily=Architects Daughter;fontSource=https%3A%2F%2Ffonts.googleapis.com%2Fcss%3Ffamily%3DArchitects%2BDaughter;fontSize=20;" vertex="1" parent="1">
          <mxGeometry x="-556.5" y="6525" width="225" height="54" as="geometry" />
        </mxCell>
        <mxCell id="vcGLAYSt9LBhHn7l5LKz-35" value="Maintain &amp; Update Knowledge Base" style="whiteSpace=wrap;strokeWidth=2;fillColor=#fff2cc;strokeColor=#d6b656;fillStyle=hatch;fontFamily=Architects Daughter;fontSource=https%3A%2F%2Ffonts.googleapis.com%2Fcss%3Ffamily%3DArchitects%2BDaughter;fontSize=20;" vertex="1" parent="1">
          <mxGeometry x="2" y="6525" width="260" height="60" as="geometry" />
        </mxCell>
        <mxCell id="vcGLAYSt9LBhHn7l5LKz-59" value="&lt;h1 style=&quot;font-family: Helvetica; color: rgb(26, 26, 26);&quot;&gt;&lt;font style=&quot;font-size: 46px;&quot; face=&quot;Architects Daughter&quot;&gt;Knowledge Retention and Integration&lt;/font&gt;&lt;/h1&gt;" style="text;html=1;align=center;verticalAlign=middle;whiteSpace=wrap;rounded=0;fontFamily=Architects Daughter;fontSource=https%3A%2F%2Ffonts.googleapis.com%2Fcss%3Ffamily%3DArchitects%2BDaughter;labelBackgroundColor=none;fontColor=#1A1A1A;fontSize=28;" vertex="1" parent="1">
          <mxGeometry x="-560" y="4100" width="978" height="30" as="geometry" />
        </mxCell>
      </root>
    </mxGraphModel>
  </diagram>
</mxfile>
